@startuml

[*] -> トップページ
会員登録 --> トップページ:トップページをクリック/商品検索
ログイン --> トップページ:トップページをクリック/商品検索
トップページ -> トップページ:ログアウトをクリック
トップページ -> トップページ:商品検索
トップページ -left-> 会員登録:会員登録をクリック
会員登録 -> 会員登録:会員登録をクリック
ログイン -> 会員登録:会員登録をクリック
トップページ -left-> ログイン:ログインをクリック
会員登録 -> ログイン:ログインをクリック
ログイン -> ログイン:ログインをクリック
トップページ --> カート内:カートをクリック
カート内 -up-> トップページ:トップページをクリック/商品検索
カート内 -up-> トップページ:ログアウトをクリック

state カート内 {
  [*] --> カート
  カート -> 注文:注文をクリック
  カート -> カート:数量を変更/商品を削除/カートをクリック
  注文 --> カート:カートをクリック
  state 注文 {
    [*] --> お届け先入力
    お届け先入力 -> お届け先入力内容確認:入力内容確認をクリック
    お届け先入力内容確認 -> お届け先入力:修正をクリック
    お届け先入力内容確認 -> 購入完了:注文確定をクリック
  }
}

@enduml
